HIERARCHY
ROOT Hips
{
	OFFSET 0.00 0.00 0.00
	CHANNELS 6 Xposition Yposition Zposition Xrotation Yrotation Zrotation
	JOINT Spine
	{
		OFFSET 0.00000 7.06766 0.00000
		CHANNELS 3 Xrotation Yrotation Zrotation
		JOINT Head
		{
			OFFSET 0.00000 15.03989 0.00000
			CHANNELS 3 Xrotation Yrotation Zrotation
			End Site
			{
				OFFSET 0.00000 4.52755 0.00000
			}
		}
		JOINT LeftShoulder
		{
			OFFSET 0.00000 10.53037 0.00000
			CHANNELS 3 Xrotation Yrotation Zrotation
			JOINT LeftArm
			{
				OFFSET 7.02886 0.00000 0.00000
				CHANNELS 3 Xrotation Yrotation Zrotation
				JOINT LeftForeArm
				{
					OFFSET 10.79770 0.00000 0.00000
					CHANNELS 3 Yrotation Zrotation Xrotation
					JOINT LeftHand
					{
						OFFSET 7.90744 0.00000 0.00000
						CHANNELS 3 Xrotation Yrotation Zrotation
						JOINT LeftHandThumb1
						{
							OFFSET 0.00000 0.00000 0.00000
							CHANNELS 3 Xrotation Zrotation Yrotation
							End Site
							{
								OFFSET 0.00000 0.00000 3.93700
							}
						}
						End Site
						{
							OFFSET 3.93700 0.00000 0.00000
						}
					}
				}
			}
		}
		JOINT RightShoulder
		{
			OFFSET 0.00000 10.53037 0.00000
			CHANNELS 3 Xrotation Yrotation Zrotation
			JOINT RightArm
			{
				OFFSET -7.02886 0.00000 0.00000
				CHANNELS 3 Xrotation Yrotation Zrotation
				JOINT RightForeArm
				{
					OFFSET -10.79770 0.00000 0.00000
					CHANNELS 3 Yrotation Zrotation Xrotation
					JOINT RightHand
					{
						OFFSET -7.90744 0.00000 0.00000
						CHANNELS 3 Xrotation Yrotation Zrotation
						JOINT RightHandThumb1
						{
							OFFSET 0.00000 0.00000 0.00000
							CHANNELS 3 Xrotation Zrotation Yrotation
							End Site
							{
								OFFSET 0.00000 0.00000 3.93700
							}
						}
						End Site
						{
							OFFSET -3.93700 0.00000 0.00000
						}
					}
				}
			}
		}
	}
	JOINT LeftUpLeg
	{
		OFFSET 4.01300 0.00000 0.00000
		CHANNELS 3 Xrotation Yrotation Zrotation
		JOINT LeftLeg
		{
			OFFSET 0.00000 -16.89976 0.00000
			CHANNELS 3 Xrotation Yrotation Zrotation
			JOINT LeftFoot
			{
				OFFSET 0.00000 -17.38918 0.00000
				CHANNELS 3 Xrotation Yrotation Zrotation
				JOINT LeftToeBase
				{
					OFFSET 0.00000 -1.27456 4.75673
					CHANNELS 3 Xrotation Yrotation Zrotation
					End Site
					{
						OFFSET 0.00000 0.00000 2.95275
					}
				}
			}
		}
	}
	JOINT RightUpLeg
	{
		OFFSET -4.01300 0.00000 0.00000
		CHANNELS 3 Xrotation Yrotation Zrotation
		JOINT RightLeg
		{
			OFFSET 0.00000 -16.89976 0.00000
			CHANNELS 3 Xrotation Yrotation Zrotation
			JOINT RightFoot
			{
				OFFSET 0.00000 -17.38918 0.00000
				CHANNELS 3 Xrotation Yrotation Zrotation
				JOINT RightToeBase
				{
					OFFSET 0.00000 -1.27456 4.75673
					CHANNELS 3 Xrotation Yrotation Zrotation
					End Site
					{
						OFFSET 0.00000 0.00000 2.95275
					}
				}
			}
		}
	}
}
MOTION
Frames: 11
Frame Time: 0.008333
 18.1770 35.3458 -21.8171 172.4861 -2.4832 177.9474 -18.1400 0.4035 2.0659 7.4391 -3.5152 0.9578 -36.4912 -0.1850 17.0866 4.6374 -5.2734 -6.9249 2.7110 0.0000 11.7446 1.2957 7.7328 -9.5420 33.1476 -0.0000 26.2537 1.0282 -14.2280 -12.0339 -39.4497 2.5271 7.5389 3.8270 -0.0000 35.7757 0.7359 -5.2686 7.9633 32.8623 0.0000 -24.3270 2.6452 9.8916 3.3706 -6.8508 -0.0000 -0.0000 -19.7301 27.7210 3.6762 27.1298 -0.0000 0.0000 2.5131 -8.7027 0.7777 -4.4333 0.0000 0.0000 -18.4898 -27.9855 0.2338 24.2705 -0.0000 0.0000
 18.1763 35.3467 -21.8136 172.4976 -2.4692 177.9476 -18.1263 0.4202 2.0748 7.4360 -3.5050 0.9570 -36.5047 -0.2159 17.0810 4.6461 -5.2650 -6.9423 2.7002 0.0000 11.7304 1.2935 7.7231 -9.5376 33.1476 -0.0000 26.2537 1.0134 -14.2266 -12.0427 -39.4238 2.5134 7.5278 3.8498 -0.0000 35.7587 0.7410 -5.3083 7.9583 32.8623 0.0000 -24.3270 2.6456 9.9070 3.3690 -6.8377 -0.0000 -0.0000 -19.7258 27.7133 3.6718 27.0938 -0.0000 0.0000 2.5090 -8.7043 0.7758 -4.4183 -0.0000 0.0000 -18.4821 -27.9779 0.2499 24.2723 -0.0000 -0.0000
 18.1764 35.3473 -21.8094 172.5090 -2.4632 177.9494 -18.1090 0.4234 2.0733 7.4260 -3.4988 0.9693 -36.5193 -0.2538 17.0814 4.6526 -5.2444 -6.9586 2.6837 0.0000 11.7388 1.2956 7.7312 -9.5435 33.1476 -0.0000 26.2537 1.0321 -14.2229 -12.0333 -39.4669 2.4979 7.5091 3.8550 -0.0000 35.7740 0.7429 -5.3081 7.9786 32.8623 0.0000 -24.3270 2.6454 9.8960 3.3694 -6.8261 0.0000 0.0000 -19.7324 27.7276 3.6832 27.1285 0.0000 -0.0000 2.5139 -8.6807 0.7761 -4.4253 -0.0000 -0.0000 -18.4781 -28.0117 0.2485 24.2456 -0.0000 0.0000
 18.1753 35.3482 -21.8060 172.5256 -2.4584 177.9566 -18.0878 0.4221 2.0726 7.4200 -3.5035 0.9644 -36.5285 -0.2721 17.0720 4.6637 -5.2494 -6.9624 2.6965 0.0000 11.7235 1.2927 7.7248 -9.5302 33.1476 -0.0000 26.2537 1.0176 -14.2035 -12.0451 -39.4504 2.4704 7.4961 3.8664 -0.0000 35.7885 0.7344 -5.2710 7.9436 32.8623 0.0000 -24.3270 2.6485 9.8892 3.3639 -6.8035 -0.0000 -0.0000 -19.7309 27.7323 3.6758 27.1013 0.0000 0.0000 2.5190 -8.6922 0.7674 -4.4174 -0.0000 -0.0000 -18.4671 -27.9922 0.2530 24.2320 -0.0000 0.0000
 18.1754 35.3494 -21.8017 172.5437 -2.4559 177.9600 -18.0625 0.4258 2.0692 7.4216 -3.4995 0.9762 -36.5101 -0.2966 17.0660 4.6236 -5.2388 -6.9788 2.6841 0.0000 11.7678 1.2896 7.7454 -9.4828 33.1476 -0.0000 26.2537 1.0416 -14.2240 -12.0244 -39.5148 2.4935 7.4877 3.8520 -0.0000 35.8126 0.7323 -5.2490 7.9537 32.8623 0.0000 -24.3270 2.6490 9.8837 3.3632 -6.7827 0.0000 0.0000 -19.7350 27.7395 3.6834 27.0800 -0.0000 0.0000 2.5259 -8.6912 0.7644 -4.4118 0.0000 -0.0000 -18.4660 -27.9971 0.2651 24.2651 -0.0000 0.0000
 18.1748 35.3508 -21.7959 172.5504 -2.4564 177.9679 -18.0486 0.4204 2.0604 7.4232 -3.5059 0.9870 -36.5149 -0.3239 17.0530 4.6575 -5.2421 -6.9763 2.6952 0.0000 11.7543 1.2900 7.7477 -9.4828 33.1476 -0.0000 26.2537 1.0519 -14.2135 -12.0208 -39.5919 2.4773 7.4775 3.8516 -0.0000 35.8494 0.7303 -5.2375 7.9494 32.8623 0.0000 -24.3270 2.6303 9.8666 3.3586 -6.7487 -0.0000 -0.0000 -19.7470 27.7479 3.7109 27.1349 0.0000 -0.0000 2.5199 -8.6900 0.7552 -4.4092 -0.0000 -0.0000 -18.4597 -28.0021 0.2493 23.8433 0.0000 -0.0000
 18.1743 35.3523 -21.7903 172.5620 -2.4478 177.9747 -18.0315 0.4247 2.0564 7.4392 -3.4991 0.9943 -36.5147 -0.3514 17.0381 4.6493 -5.2518 -6.9804 2.7276 0.0000 11.7646 1.2854 7.7564 -9.4393 33.1476 -0.0000 26.2537 1.0657 -14.2091 -12.0168 -39.6360 2.4730 7.4735 3.8471 -0.0000 35.9037 0.7304 -5.2480 7.9352 32.8623 0.0000 -24.3270 2.6232 9.8470 3.3541 -6.7233 -0.0000 -0.0000 -19.7411 27.7805 3.6900 27.0723 0.0000 0.0000 2.5133 -8.6952 0.7472 -4.3987 0.0000 0.0000 -18.4480 -27.9878 0.2482 24.2638 0.0000 -0.0000
 18.1741 35.3537 -21.7851 172.5717 -2.4507 177.9807 -18.0149 0.4217 2.0499 7.4510 -3.5080 0.9976 -36.5346 -0.3885 17.0238 4.6927 -5.2589 -6.9824 2.7466 0.0000 11.7787 1.2803 7.7158 -9.4510 33.1476 -0.0000 26.2537 1.0309 -14.1895 -12.0376 -39.6333 2.4382 7.4733 3.8750 -0.0000 35.9132 0.7283 -5.2360 7.9303 32.8623 0.0000 -24.3270 2.6117 9.8245 3.3514 -6.6945 0.0000 -0.0000 -19.7398 27.7942 3.6948 27.0538 -0.0000 -0.0000 2.5075 -8.7064 0.7430 -4.3862 -0.0000 -0.0000 -18.4356 -27.9951 0.2921 24.1906 -0.0000 0.0000
 18.1733 35.3551 -21.7792 172.5777 -2.4406 177.9863 -18.0043 0.4241 2.0511 7.4733 -3.4955 1.0087 -36.5355 -0.4083 17.0090 4.7074 -5.2697 -6.9838 2.7533 0.0000 11.7713 1.2809 7.7033 -9.4701 33.1476 -0.0000 26.2537 1.0269 -14.1716 -12.0420 -39.6132 2.4361 7.4562 3.8750 -0.0000 35.9035 0.7316 -5.2715 7.9123 32.8623 0.0000 -24.3270 2.5984 9.8277 3.3474 -6.6708 -0.0000 -0.0000 -19.7318 27.7940 3.6700 27.0572 -0.0000 0.0000 2.4934 -8.7062 0.7337 -4.3721 0.0000 0.0000 -18.4438 -27.9802 0.2691 24.2703 0.0000 -0.0000
 18.1735 35.3566 -21.7723 172.5831 -2.4362 177.9864 -17.9905 0.4219 2.0545 7.4871 -3.5046 1.0105 -36.5340 -0.4362 16.9974 4.6901 -5.2667 -6.9942 2.7538 0.0000 11.7996 1.2782 7.6766 -9.4830 33.1476 -0.0000 26.2537 1.0068 -14.1548 -12.0499 -39.5837 2.4353 7.4445 3.8702 -0.0000 35.8779 0.7314 -5.2769 7.9028 32.8623 0.0000 -24.3270 2.5822 9.8207 3.3509 -6.6484 -0.0000 -0.0000 -19.7343 27.8014 3.6858 27.0206 -0.0000 -0.0000 2.4781 -8.6711 0.7277 -4.3558 -0.0000 0.0000 -18.4343 -28.0051 0.2650 24.2629 -0.0000 0.0000
 18.1728 35.3578 -21.7660 172.5928 -2.4204 177.9908 -17.9722 0.4229 2.0575 7.5081 -3.4781 1.0200 -36.5428 -0.4621 16.9907 4.6748 -5.2578 -7.0037 2.7573 0.0000 11.8053 1.2731 7.6612 -9.4639 33.1476 -0.0000 26.2537 1.0015 -14.1312 -12.0480 -39.4875 2.4472 7.4176 3.8898 -0.0000 35.7849 0.7377 -5.2884 7.9531 32.8623 0.0000 -24.3270 2.5807 9.8011 3.3475 -6.6355 0.0000 0.0000 -19.7357 27.8280 3.7024 27.0531 -0.0000 0.0000 2.4655 -8.6697 0.7212 -4.3412 0.0000 0.0000 -18.4243 -28.0015 0.2803 23.8861 -0.0000 -0.0000
